<?xml version="1.0" encoding="UTF-8"?><svg id="a" xmlns="http://www.w3.org/2000/svg" viewBox="0 0 1009.94 1351.17"><defs><style>.b{fill:#325a96;}</style></defs><path class="b" d="M941.02,728.64c10.35,14.54,.89,37.22-11.7,43.77-6.83,3.55-13.94,6.12-22.33,8.1,7.4,4.64,14.15,8.6,19.99,13.89,14.02,12.67,19.36,28.95,20.32,47.21,.13,2.44-1.32,2.98-2.96,3.85-14.6,7.73-27.04,17.53-33.99,33.26-4.17,9.43-4.23,19.33-4.85,29.2-.83,13.17,2.69,25.67,6.21,38.19,4.2,14.98,5.25,30.32,1.1,45.37-8.19,29.72-29.29,46.22-58.07,53.78-19.09,5.01-38.82,5.22-58.41,6.32-23.06,1.29-46.27,.61-69.12,4.78-19.15,3.5-37.59,9.11-53.64,20.56-16.12,11.49-28.94,26.3-40.13,42.46-18.63,26.89-32.44,56.39-45.62,86.17-20.51,46.32-38.09,93.79-54.25,141.78-1.42,4.21-2.84,4.56-6.81,3.05-47.25-17.99-90.07-43.9-131.2-72.88-41.23-29.06-80.25-61.01-120.34-91.55-34.41-26.21-69.46-51.48-107.85-71.71-28.21-14.86-57.58-26.56-89.08-32.31-11.04-2.01-22.16-3.68-33.45-3.6-1.42,.01-3.36,.72-4.08-.92-.89-2.02,1.43-2.69,2.48-3.65,33.59-30.57,59.38-66.3,72.21-110.37,6.79-23.31,9.31-47.26,8.78-71.53-.02-.83,.1-1.66,.16-2.48,.83-.63,.77-1.23-.09-1.78-2.5-52.11-18.59-100.61-39.36-147.86-.73-1.66-1.32-3.38-1.97-5.07,.65-.09,1.8-.02,1.88-.29,1.49-4.81,5.44-3.7,8.84-3.7,34.62-.03,69.25-.02,103.87,0,1.7,0,3.37,.02,4.29-1.79,.66,.49,1.38,.92,1.98,1.47,52.93,48.9,115.74,77,186.47,88.12,38.85,6.11,77.83,6.21,116.85,1.24,44.78-5.71,87.3-18.52,127.31-39.54,28.76-15.11,54.54-34.3,78.13-56.55,2.95,2.18,5.76,4.01,6.89-1.66,.22-1.08,1.45-1.13,2.47-1.31,2.94-.52,5.83-1.02,8.86-1.02,62.11,.06,124.22,.06,186.34,.01,3.47,0,6.97-.23,10.41-.33,3.64-.1,8.17,.23,8.83,5.78,.29,2.45,2.07,3.68,4.62,3.57Z"/><path class="b" d="M941.02,728.64c-2.55,.11-4.33-1.12-4.62-3.57-.66-5.55-5.19-5.88-8.83-5.78-3.44,.1-6.95,.33-10.41,.33-62.11,.04-124.22,.05-186.34-.01-3.03,0-5.93,.5-8.86,1.02-1.02,.18-2.25,.23-2.47,1.31-1.13,5.67-3.94,3.85-6.89,1.66,2.02-2.18,3.99-4.4,6.06-6.53,25.37-26.1,46.02-55.53,61.98-88.22,29.63-60.68,41.62-125.03,39.99-192.26-.7-28.89-4.09-57.4-11.31-85.35-26.51-102.65-85.87-179.67-180.87-227.54-71.37-35.96-147.38-45.04-225.8-32.08-87.69,14.5-161.53,54.95-219.45,122.79-52.47,61.45-80.15,133.39-87.05,213.55-2.57,29.91-1.78,59.81,1.85,89.65,3.19,26.16,9.2,51.73,17.51,76.62,5.38,16.11,12.09,31.86,20.38,46.89,9.99,18.1,20.87,35.54,33.57,51.86,9.92,12.76,21.22,24.25,32.38,35.88-.93,1.81-2.59,1.79-4.29,1.79-34.62-.01-69.25-.02-103.87,0-3.4,0-7.35-1.11-8.84,3.7-.08,.27-1.23,.2-1.88,.29l.07,.05c-.24-.34-.47-.69-.71-1.03-10.21-20.71-19.62-41.79-28.95-62.9-9.52-21.53-18.2-43.4-25.68-65.72C12.36,559.3,1.78,512.55,.26,464.19c-3.63-115.61,30.25-218.79,105.1-307.41C165.22,85.9,241.22,39.99,330.69,16.19,388.85,.72,448.01-2.8,507.84,1.99c56.66,4.54,111.33,17.02,162.95,41.22,89.31,41.88,152.65,108.89,191.41,199.34,15.13,35.31,25.03,72.15,30.78,110.1,1.93,12.75-.27,24.87-6.9,36.02-14.58,24.52-8.98,49.24,7.63,68.77,23.39,27.51,47.17,54.68,70.8,81.98,11.07,12.79,22.24,25.5,33.22,38.36,9.02,10.57,14.47,22.54,11.3,36.71-3.17,14.18-12.89,23.08-25.99,28.09-15.82,6.05-31.92,11.36-47.86,17.1-11.92,4.28-15.51,11.01-13.2,23.57,1.13,6.17,4.07,11.56,6.57,17.17,4.19,9.39,8.32,18.81,12.48,28.21Z"/><path class="b" d="M124.3,887.57c.85,.55,.91,1.15,.09,1.78-.03-.59-.06-1.19-.09-1.78Z"/><path class="b" d="M244.55,453.67c.2-64.8,5.68-114.22,21.34-162.11,13.36-40.86,33.04-78.09,64.99-107.71,38.42-35.61,84.1-49.56,135.9-44.2,59.7,6.17,104.2,37.1,137.71,85.44,25.14,36.27,40.6,76.79,51.06,119.37,9.6,39.07,14.47,78.74,15.28,118.98,1.13,55.61-4.7,110.24-22.29,163.23-11.32,34.1-27.48,65.6-52.38,91.99-27.81,29.47-61.98,46.62-102.23,50.93-77.78,8.34-137.54-22.5-182.11-85.19-26.18-36.82-42.22-78.18-52.91-121.78-9.95-40.58-14.52-81.8-14.36-108.94Z"/></svg>