<?xml version="1.0" encoding="UTF-8"?><svg id="a" xmlns="http://www.w3.org/2000/svg" viewBox="0 0 1598.74 1598.74"><defs><style>.b{fill:#c4916a;}.c{fill:#da7e3b;}</style></defs><path class="c" d="M336.13,639.03c-.38-86.18,35.35-170.82,89.98-249.76,82.28-118.9,200.8-168.2,338.91-187.65,223.04-31.4,442.25,163.45,480.27,356.32,18.7,94.86,23.3,189.31-22.29,278.17-69.91,136.26-172.5,234.38-328.74,262.36-105.49,18.89-211.24,19.8-307.66-34.69-108.94-61.57-194.96-145.86-232.53-269.84-14.11-46.55-16.75-95.07-17.93-154.9Z"/><path class="b" d="M308.32,1259.87c.03-14.67,.24-29.34-.04-44.01-.22-11.77,3.65-18.34,16.91-17.94,21.38,.64,42.78,.2,64.18,.25,5.1,.01,10.53,.64,11.33,6.75,1,7.62-5.5,9.27-10.81,9.46-15.87,.59-31.82,1.1-47.65,.13-13.64-.83-14.76,6.28-14.22,16.85,.5,9.75-2.07,20.22,13.94,18.99,12.76-.98,25.67-.49,38.49-.08,6.13,.19,13.37,1.42,12.84,9.6-.46,7.15-7.17,7.18-12.76,7.22-11.61,.08-23.33,1.03-34.82-.2-15.33-1.65-18.37,5.18-18.04,18.88,.31,12.84,1.62,20.89,17.69,19.33,14.53-1.41,29.31-.29,43.98-.16,5.75,.05,11.96,.98,12.07,8.15,.11,7.23-6.25,8.4-11.87,8.46-22,.25-44.01,.16-66.01,.21-10.76,.03-15.39-5.58-15.28-16.06,.16-15.28,.04-30.56,.07-45.84Z"/><path class="b" d="M1370.1,1260.06c0-15.9,.19-31.81-.07-47.71-.17-10.08,4.43-14.47,14.38-14.4,22.02,.15,44.04-.04,66.06,.05,5.6,.02,12.3,.43,12.11,7.79-.17,6.43-6.16,8.78-12.01,8.89-14.06,.25-28.2,.89-42.19-.16-14.52-1.09-18.66,4.41-18.82,18.7-.17,14.3,4.86,18.26,18.07,17.09,10.32-.92,20.78-.19,31.18-.15,6.94,.03,15.43,.43,15.9,8.68,.56,9.8-8.71,8.12-15.12,8.26-12.84,.27-25.7,.46-38.53,.1-14.51-.4-11.29,10.27-10.85,17.95,.44,7.74-5.36,19.96,10.87,19.67,16.51-.29,33.03-.16,49.55-.03,5.64,.04,12.05,.74,12.61,7.73,.6,7.47-6.38,8.68-11.58,8.79-22.62,.51-45.26,.59-67.89,.28-9.64-.13-13.97-6.05-13.86-15.67,.18-15.29,.05-30.58,.05-45.88h.12Z"/><path class="b" d="M619.17,1259.81c0-15.31,.32-30.63-.1-45.92-.29-10.61,3.56-16.19,14.77-15.91,12.24,.31,24.54-.56,36.72,.36,33.15,2.52,57.42,26.62,58.53,57.27,1.22,33.66-18.79,57.95-52.83,64.15-53.58,9.76-57.15,6.82-57.09-47.1,0-4.29,0-8.57,0-12.86Zm18.36-.45h.09c0,11-.08,22.01,.04,33.01,.05,4.7-.86,9.52,5.47,12,25.25,9.91,59.68-8.12,65.3-34.55,7.12-33.45-15.23-56.75-53.5-56.24-12.54,.17-19.47,4.02-17.62,18.29,1.17,9.02,.22,18.31,.22,27.48Z"/><path class="b" d="M250.57,1260.06c0,15.89-.09,31.79,.04,47.68,.06,7.54-1.55,14-10.66,13.58-7.82-.36-9.62-6.3-9.4-13.09,.02-.61,.09-1.23,.02-1.83-1.32-12.47,6.23-30.73-3.8-36.22-14.91-8.17-34.55-2.66-52.18-2.48-6.54,.07-7.27,5.58-7.23,10.68,.07,9.77,.02,19.56,.68,29.3,.48,7.17-1.7,12.67-8.91,13.56-8.23,1.02-10.05-5.23-10.06-11.97-.06-33.01-.04-66.02-.06-99.03,0-6.94,2.09-12.41,10.23-11.97,7.54,.41,7.58,6.39,8.05,12.06,1.04,12.6-5.71,28.94,3.41,36.88,9.45,8.23,25.89,1.26,39.07,3.05,17.32,2.36,23.12-4.88,20.94-21.38-.87-6.6-.2-13.43,.03-20.15,.21-6.26,2.97-10.7,9.86-10.7,6.9,0,9.79,4.42,9.85,10.69,.15,17.11,.05,34.23,.05,51.34h.09Z"/><path class="b" d="M824.9,1322.44c-13.9,.62-26.67-3.23-38.3-10.54-5.76-3.62-15.84-6.74-10.13-15.86,4.19-6.69,11.78-2.78,18.07,.56,6.96,3.69,14.38,6.6,21.78,9.36,8.78,3.28,17.09,.75,24.44-4.05,11.34-7.4,10.91-22.23-1.44-27.92-9.86-4.54-20.94-6.41-31.38-9.77-21.79-7.01-31.03-18.48-29.51-36.23,1.42-16.64,14.19-27.87,35.24-31.51,14.65-2.54,27.97,1.22,40.43,8.34,4.94,2.83,12.36,6.12,8.3,13.76-3.63,6.84-10.31,5.42-16.02,2-6.93-4.15-14.25-7.49-22.25-7.95-10.9-.63-22.14,1.6-25.27,13.43-3.39,12.8,5.83,18.58,17.06,21.47,6.5,1.67,12.9,3.75,19.38,5.55,25.45,7.05,35.29,18.6,32.98,38.8-2.17,18.95-18.45,30.43-43.4,30.57Z"/><path class="b" d="M1168.57,1310.47c1.02,5.85-1.87,8.77-6.28,10.29-5.65,1.95-11.06-1.1-12.02-5.62-6.18-29.08-27.71-26.03-49.56-26.41-16.92-.29-27.93,3.63-32.88,20.78-2.01,6.96-6.2,15.28-15.52,10.96-10.29-4.76-3.43-12.62-.67-18.79,13.5-30.14,27.24-60.17,41.08-90.15,3.02-6.54,5.5-14.13,14.86-14.18,9.19-.04,12.06,6.93,15.18,13.71,14.08,30.54,28.22,61.06,42.32,91.59,1.28,2.77,2.48,5.58,3.48,7.82Zm-60.73-89.8c-4.91,10.56-8.1,16.91-10.87,23.44-13.74,32.43-12.92,33.25,23.09,30.13,8.35-.72,11.16-2.84,7.26-11.01-5.98-12.52-11.58-25.23-19.48-42.56Z"/><path class="b" d="M506.64,1290.11c-20.4-4.91-35.78-.36-41.24,22.71-1.49,6.31-6.27,11.35-13.72,7.51-7.28-3.75-5.29-10.09-2.59-15.94,14.87-32.18,29.78-64.34,44.69-96.5,2.69-5.79,6.04-10.71,13.5-10.38,7.19,.31,10.55,4.93,13.27,10.87,14.73,32.23,29.59,64.4,44.47,96.56,2.81,6.06,4.47,12.18-2.97,15.65-7.35,3.42-12.88-1.68-14.05-7.64-4.78-24.28-21.16-26.79-41.36-22.84Zm-.88-67.48c-7.07,15.64-13.31,29.42-19.51,43.21-1.72,3.82-2.09,7.63,3.43,7.8,11.6,.35,23.25,.58,34.83,0,5.68-.28,4.28-5.02,2.59-8.23-6.99-13.27-10.46-28.34-21.34-42.78Z"/><path class="b" d="M921.47,1259.01c0-15.25,.17-30.51-.07-45.76-.13-8.33,1.73-14.95,11.56-14.95,16.45,0,33.12-1.06,49.3,1.18,21.68,3,33.26,17.09,33.83,36.8,.59,20.38-9.54,33.79-30.42,40.08-2.9,.87-5.9,1.7-8.9,1.91-10.86,.75-23.86-2.23-32.02,2.77-8.61,5.26-1.87,19.24-3.91,29.18-1.16,5.63-3.1,11.21-10,11.07-8.09-.16-9.47-6.22-9.46-12.87,.01-8.54-.03-17.08-.03-25.62,0-7.93,0-15.86,0-23.79h.14Zm18.41-17.06c-.82,10.47-3.24,24.32,19.87,22.14,23.66-2.23,37.63-10.16,37.55-26.2-.08-16.69-12.76-23.06-39.91-24.65-21.96-1.29-17.45,12.63-17.52,28.71Z"/><path class="b" d="M1273,1322.48c-30.52-.13-52.62-15.36-61.86-41.69-9.64-27.44-.27-54.27,25.76-73.8,19.8-14.85,50.82-15.11,72.31-.23,5.14,3.56,14.12,6.75,9.35,15.06-4.94,8.6-12.02,4.4-18.84,.23-24.1-14.76-44.91-12.43-60.85,6.2-14.48,16.93-14.21,44.32,.64,62.73,14.92,18.52,36.59,21.09,59.02,6.55,6.85-4.44,14.45-11.19,20.14-1.39,5.09,8.76-5.38,12.02-10.72,16.2-10.61,8.31-23.06,10.85-34.94,10.15Z"/><path class="b" d="M1508.47,1226.1c-13.7-.25-20.42-6.66-20.61-17.96-.19-11.44,6.82-18.27,18.28-18.25,11.17,.02,18.77,6.06,18.92,17.8,.15,11.78-7.62,16.99-16.6,18.41Z"/></svg>