<svg height="1600" viewBox="0 0 1600 1600" width="1600" xmlns="http://www.w3.org/2000/svg"><g fill="none" fill-rule="evenodd"><g transform="translate(0 796.977011)"><g fill="#5aa144"><path d="m46.7859486 157.954845c-.2066392 27.197981-.2066392 40.797905 0 40.797905h.309028c1.6400826.416476 3.4365408.825483 5.3893747 1.236356 1.9509722.416477 5.3912363.879644 10.3207921 1.391369 4.9314174.517327 9.49982.618178 13.7107925.308155 4.2072493-.308155 8.9338891-1.234489 14.1724729-2.780869 5.2385839-1.544512 9.6506112-3.862214 13.2472502-6.953106 3.591055-3.090892 6.625487-7.520859 9.090265-13.291768 2.464778-5.765307 3.697167-12.565269 3.697167-20.399887 0-8.23802-1.031335-15.398431-3.080973-21.481231-2.055222-6.073462-4.726639-10.817188-8.012389-14.216235-3.287612-3.399047-7.191418-6.129491-11.7058338-8.19133-4.5200005-2.058105-8.8873487-3.294461-13.094598-3.70907-4.2128341-.410874-8.6788479-.463167-13.3999028-.155012-4.7303631.310023-8.6825711.77319-11.8640707 1.391368-3.1870844.618179-6.1135428 1.342811-8.7793751 2.162691zm0-88.3995067-18.4858343 21.3280875c4.1067221-1.439926 7.8560142-3.499898 11.244153-6.1817836 3.391862-2.6744152 6.0576943-4.8912664 8.0123898-6.643083 1.9491106-1.7480814 5.6984027-3.3467542 11.244153-4.7904155 5.5438887-1.4417936 12.8339719-2.1664257 21.8739731-2.1664257 8.2134442 0 16.1234452.8254829 23.7225568 2.4745811 7.597249 1.6528334 15.097695 4.5345531 22.490167 8.6544972 7.396196 4.1236793 13.813182 9.2708079 19.256543 15.4544592 5.439638 6.1799165 9.806987 14.1676775 13.094598 23.9539445 3.282027 9.788136 4.929556 20.863053 4.929556 33.224753 0 31.943574-6.88239 54.762013-20.641584 68.46092-13.76478 13.708245-36.463448 20.554898-68.0885591 20.554898-10.0657508 0-19.1020287-.517328-27.1106953-1.544512-8.0123898-1.029053-14.3809738-2.164559-19.1020288-3.400915-4.7285014-1.236357-9.0400011-2.935881-12.9419456-5.098571-3.9038061-2.162691-6.57522324-3.914507-8.00866658-5.257318-1.43902819-1.337207-3.0325704-3.089024-4.77504179-5.253582-1.74805624-2.16269-2.72540397-3.344887-2.92645836-3.554059v-182.3588832c0-8.2361529.97176289-14.5262579 2.92645836-18.8535065 1.94911062-4.3272486 4.66892975-7.0539568 8.16318057-8.1894627 3.4905277-1.12990302 7.1355693-1.69952357 10.9388482-1.69952357 3.7976941 0 8.0086666-.31002299 12.6291943-.92820136 4.6223894-.61817837 8.4740703-2.05810442 11.5550427-4.32911619z"/><path d="m239.224787 149.918526c3.488666-2.472713 9.18893-4.118076 17.098931-4.943559 7.904416-.821748 15.296888-1.284915 22.183001-1.391368 6.878667-.100851 12.986625-1.54638 18.329459-4.329117 5.340973-2.780868 7.904416-7.156675 7.703362-13.134889 0-5.354433-4.210973-9.786268-12.632918-13.291769-11.705833-4.945427-23.106362-5.354433-34.196001-1.236357-15.406723 5.563606-21.566807 18.34365-18.485834 38.327059zm1.539555 32.453431c0 6.390956 3.1815 11.181371 9.550084 14.373114 6.364861 3.197345 14.427514 4.842708 24.184237 4.943559 9.754861.106454 19.304945-.308155 28.653974-1.234489 9.343444-.928201 18.176806-2.009547 26.496362-3.245903 8.317695-1.236357 13.092737-1.854535 14.325126-1.854535.81911 17.927172-2.725404 30.598895-10.627959 38.018903-7.910001 7.416273-23.776543 11.125343-47.599627 11.125343-32.866808 0-56.99892-6.693508-72.40192-20.091731-15.404862-13.388884-23.106362-36.571507-23.106362-69.542265 0-16.483511 2.103624-30.443884 6.314597-41.881117 4.207249-11.435366 10.369194-20.1384214 18.485834-26.1166358 8.111056-5.9744791 17.149195-10.1990092 27.112557-12.6717227 9.957777-2.4745811 21.613347-3.7109378 34.96671-3.7109378 25.466889 0 44.211488 5.4104614 56.228211 16.2276491 12.014862 10.8190552 18.022292 28.0776242 18.022292 51.7701042 0 9.070973-1.746194 16.334102-5.236722 21.791254-3.496112 5.462754-8.064515 9.119532-13.710792 10.974067-5.650001 1.852667-12.430002 3.195478-20.334418 4.017225-7.90814.825483-15.712029 1.081346-23.41539.77319-7.699639-.310023-16.021057.052293-24.954946 1.081345-8.935751 1.032788-16.588849 2.780869-22.951848 5.253583z"/><path d="m475.430187 201.535486c2.874333 9.070974 3.282027 17.415448 1.232389 25.03529-2.055222 7.627313-5.54575 12.673591-10.477167 15.144437-10.680084 3.294461-21.103265 4.274955-31.269543 2.93588-10.166278-1.340943-19.208141-4.17037-27.110695-8.497618-7.90814-4.327249-14.328849-10.611751-19.256543-18.855374-4.929556-8.239888-7.394334-17.61715-7.394334-28.124315v-132.9064812c-.206639-6.385353.81911-11.693096 3.080972-15.9176261 2.258139-4.2207949 5.646278-7.2631289 10.166278-9.117664 4.514416-1.8545351 9.345306-3.0367312 14.481501-3.5540587 5.130611-.5135923 11.290694-.567753 18.485835-.1550115v44.8151303h52.990863v2.3195696c0 .9282013-.208501 2.8350295-.616194 5.7186168-.41514 2.8873225-1.031335 5.6681914-1.848584 8.3444742-.822834 2.680018-2.209736 5.6158983-4.158847 8.8095086-1.954696 3.197346-4.264959 5.925921-6.934515 8.189463-2.671417 2.271011-6.266195 4.172237-10.780611 5.718617-4.52 1.544512-9.550083 2.317701-15.097695 2.317701-4.929556 0-9.449557.106454-13.554417.308156l.307166 71.400535c-.206639 5.561738.925223 9.840429 3.390001 12.824867 2.462916 2.990041 5.798929 4.741858 10.009902 5.253582 4.210973.517328 8.421945.618179 12.632918.310023 4.207249-.310023 8.52061-.77319 12.940084-1.391368 4.41575-.618178 7.342208-.926334 8.781236-.926334"/><path d="m601.344223 201.535486c2.874333 9.070974 3.282027 17.415448 1.232389 25.03529-2.055223 7.627313-5.543889 12.673591-10.475306 15.144437-10.681945 3.294461-21.105126 4.274955-31.271404 2.93588-10.164417-1.340943-19.208141-4.17037-27.110696-8.497618-7.908139-4.327249-14.326987-10.611751-19.256543-18.855374-4.929555-8.239888-7.392472-17.61715-7.392472-28.124315v-132.9064812c-.208501-6.385353.817249-11.693096 3.079111-15.9176261 2.258139-4.2207949 5.646278-7.2631289 10.166278-9.117664 4.514416-1.8545351 9.345306-3.0367312 14.481501-3.5540587 5.13061-.5135923 11.292555-.567753 18.485834-.1550115v44.8151303h52.990864v2.3195696c0 .9282013-.206639 2.8350295-.616195 5.7186168-.413278 2.8873225-1.031334 5.6681914-1.848583 8.3444742-.822834 2.680018-2.209737 5.6158983-4.158847 8.8095086-1.954696 3.197346-4.26496 5.925921-6.934515 8.189463-2.671417 2.271011-6.266195 4.172237-10.780611 5.718617-4.520001 1.544512-9.550084 2.317701-15.097696 2.317701-4.929556 0-9.447694.106454-13.554417.308156l.309028 71.400535c-.2085 5.561738.923361 9.840429 3.388139 12.824867 2.464778 2.990041 5.79893 4.741858 10.011764 5.253582 4.209111.517328 8.420084.618179 12.632918.310023 4.205388-.310023 8.518749-.77319 12.938222-1.391368 4.41575-.618178 7.342209-.926334 8.781237-.926334"/><path d="m674.669504 149.918526c3.490528-2.472713 9.18893-4.118076 17.098931-4.943559 7.904417-.821748 15.296889-1.284915 22.18114-1.391368 6.876805-.100851 12.988486-1.54638 18.33132-4.329117 5.33725-2.780868 7.902555-7.156675 7.7015-13.134889 0-5.354433-4.210972-9.786268-12.629194-13.291769-11.707695-4.945427-23.1045-5.354433-34.197863-1.236357-15.404862 5.563606-21.566806 18.34365-18.485834 38.327059zm1.539555 32.453431c0 6.390956 3.1815 11.181371 9.550084 14.373114 6.364861 3.197345 14.427514 4.842708 24.184237 4.943559 9.753.106454 19.306806-.308155 28.655836-1.234489 9.341582-.928201 18.174944-2.009547 26.492639-3.245903 8.321418-1.236357 13.094598-1.854535 14.326987-1.854535.817249 17.927172-2.723542 30.598895-10.631682 38.018903-7.908139 7.416273-23.774682 11.125343-47.595904 11.125343-32.866808 0-56.99892-6.693508-72.400058-20.091731-15.406724-13.388884-23.108224-36.571507-23.108224-69.542265 0-16.483511 2.103625-30.443884 6.316459-41.881117 4.205387-11.435366 10.367332-20.1384214 18.485834-26.1166358 8.109194-5.9744791 17.147333-10.1990092 27.110695-12.6717227 9.959639-2.4745811 21.611486-3.7109378 34.970433-3.7109378 25.461305 0 44.207765 5.4104614 56.220765 16.2276491 12.020446 10.8190552 18.024154 28.0776242 18.024154 51.7701042 0 9.070973-1.746195 16.334102-5.236722 21.791254-3.494251 5.462754-8.05893 9.119532-13.710793 10.974067-5.65 1.852667-12.42814 3.195478-20.330694 4.017225-7.910001.825483-15.712029 1.081346-23.417252.77319-7.703362-.310023-16.019195.052293-24.953084 1.081345-8.935751 1.032788-16.588849 2.780869-22.95371 5.253583z"/><path d="m933.091415 70.1753843c-.206639.4146091-.156376 2.5791671.152652 6.4918067.307167 3.9163747.256903 7.677738-.152652 11.2803545-.413279 3.6063517-1.232389 7.4704335-2.462916 11.5922451-1.232389 4.1236794-3.753016 7.4162724-7.55071 9.8889864-3.803279 2.472713-8.680709 3.70907-14.636015 3.70907-8.624861 0-15.300611.308155-20.023528.926334-4.72664.618178-8.932027 2.16269-12.629194 4.639139-3.702752 2.472714-6.165668 5.978214-7.398057 10.507165-1.232389 4.534553-1.848584 10.714469-1.848584 18.545351v98.904804c-3.697166-2.680018-8.574597-4.790416-14.63043-6.334928-6.065141-1.54638-11.201336-2.728576-15.408585-3.554059-4.210972-.821747-7.958403-3.245903-11.246015-7.264996-3.287611-4.017226-4.929555-9.836694-4.929555-17.462139v-82.834033c0-1.236357.050263-2.935881.156375-5.098571.102389-2.164558.459819-5.148996 1.076014-8.966388.616194-3.809921 1.641944-7.619842 3.080972-11.433498 1.435305-3.8099214 3.594778-7.7767215 6.474696-11.9022684 2.872472-4.1180765 6.362999-7.7262958 10.473445-10.81532 4.10486-3.0908919 9.393707-5.6644562 15.866542-7.7262959 6.469111-2.059972 13.707069-3.0927594 21.721321-3.0927594h30.496972 10.788058 3.538929z"/></g><path d="m1013.17994 76.0490126c10.06575-4.1218117 26.90778-6.1836513 50.52609-6.1836513 11.50478 0 21.36389 1.9609888 29.57919 5.8736283 8.21159 3.9163748 14.17062 8.3986348 17.87151 13.4449126 3.69716 5.050013 6.51565 10.8190548 8.47034 17.3089948 1.94911 6.489939 3.03071 11.332647 3.23735 14.528125.20106 3.197346.20106 5.924054 0 8.189463v112.504728c-30.81158 4.119944-46.21459-5.455284-46.21459-28.742493v-34.001678c.20292-30.697879-1.23238-49.398241-4.31149-56.095485-3.08098-6.695376-12.74276-10.249435-28.96301-10.665911-10.06575 0-20.12964 1.854535-30.19539 5.565473v95.197601c.40956 12.3617-3.4384 20.452179-11.54946 24.2621-8.120359 3.815524-19.669817 5.30214-34.663262 4.480393v-241.08396137c3.697167 2.680018 8.574598 4.27869076 14.636015 4.79228306 6.053971.51732752 11.190166.77318986 15.406724.77318986 4.207253 0 7.954683 2.21685113 11.242293 6.64495055 3.28202 4.4318347 4.92769 11.6949636 4.92769 21.7893868z" fill="#6a6a67"/><path d="m1206.2871 149.918526c3.48122-2.472713 9.19638-4.118076 17.08962-4.943559 7.91187-.821748 15.30248-1.284915 22.19045-1.391368 6.88798-.100851 12.99407-1.54638 18.33691-4.329117 5.34283-2.780868 7.89324-7.156675 7.70708-13.134889 0-5.354433-4.22586-9.786268-12.64036-13.291769-11.70956-4.945427-23.10264-5.354433-34.19787-1.236357-15.41417 5.563606-21.57611 18.34365-18.48583 38.327059zm1.54514 32.453431c0 6.390956 3.18336 11.181371 9.55008 14.373114 6.36673 3.197345 14.42752 4.842708 24.18238 4.943559 9.75486.106454 19.30494-.308155 28.65025-1.234489 9.34531-.928201 18.18798-2.009547 26.49078-3.245903 8.32142-1.236357 13.10577-1.854535 14.33443-1.854535.81911 17.927172-2.73657 30.598895-10.62982 38.018903-7.91186 7.416273-23.77282 11.125343-47.60149 11.125343-32.8575 0-57.00264-6.693508-72.39819-20.091731-15.41045-13.388884-23.11009-36.571507-23.11009-69.542265 0-16.483511 2.10549-30.443884 6.31646-41.881117 4.20725-11.435366 10.37105-20.1384214 18.48769-26.1166358 8.11664-5.9744791 17.14548-10.1990092 27.10512-12.6717227 9.95963-2.4745811 21.61334-3.7109378 34.97974-3.7109378 25.46689 0 44.21335 5.4104614 56.22076 16.2276491 12.00742 10.8190552 18.02043 28.0776242 18.02043 51.7701042 0 9.070973-1.74992 16.334102-5.23114 21.791254-3.49983 5.462754-8.06079 9.119532-13.7201 10.974067-5.64069 1.852667-12.41697 3.195478-20.32883 4.017225-7.91186.825483-15.71203 1.081346-23.41911.77319-7.68847-.310023-16.00989.052293-24.94564 1.081345-8.93575 1.032788-16.58699 2.780869-22.95371 5.253583z" fill="#6a6a67"/><path d="m1399.70887 212.97272c.40956 12.3617-3.44399 20.452179-11.56063 24.2621-8.11664 3.815524-19.65865 5.30214-34.66326 4.480393v-241.08396137c3.70461 2.680018 8.58204 4.27869076 14.65091 4.79228306 6.05024.51732752 11.1883.77318986 15.39555.77318986s7.94909 2.21685113 11.24415 6.64495055c3.27644 4.4318347 4.93328 11.6949636 4.93328 21.7893868z" fill="#6a6a67"/><path d="m46.2098638 86.7838557v43.8887963c3.2950581 1.034655 6.8321261 1.854535 10.6298202 2.472714 3.797694.618178 8.5820439 1.135506 14.3344334 1.546379 5.7523895.41461 11.0952238-.203569 16.0098867-1.854535 4.9332791-1.64723 9.6617805-4.017225 14.1855039-7.108117 4.505108-3.090892 8.098024-8.036319 10.77875-14.838149 2.662109-6.798094 4.002471-14.9352636 4.002471-24.4171113 0-7.8271466-1.284514-14.6289763-3.853542-20.3998862-2.569028-5.765307-5.547612-10.1971416-8.935751-13.2880335-3.3881387-3.0908918-7.856014-5.4104614-13.4036259-6.9568411-5.5476119-1.5445121-10.1644165-2.4727135-13.8504136-2.7808689-3.7046134-.3081554-8.3214179-.1550115-13.8690298.4631669s-8.9357507 1.034655-10.1644164 1.2363567c-1.2472819.2073046-3.0902805.6181784-5.547612 1.2363568h-.3164745c-.2047776 0-.2047776 13.6017917 0 40.7997723zm0 154.5408573c-3.6859971-2.680018-8.5634277-4.278691-14.6322918-4.790416-6.0502478-.51546-11.1883045-.771322-15.3955538-.771322-4.2258654 0-7.96771105-2.216851-11.24415298-6.648686-3.29505808-4.431834-4.93327905-11.694963-4.93327905-21.787519v-182.3607512c.20477762-.2017017 1.17281728-1.3895006 2.92273513-3.5540587 1.74991785-2.1626905 3.33229038-3.8622141 4.78434987-5.0985708 1.43344334-1.2363568 4.09555243-2.9844382 8.00494333-5.2535823 3.8907748-2.26540899 8.209721-4.01909325 12.9382224-5.25358238 4.7285014-1.23635673 11.0952238-2.36999501 19.1001672-3.40278244 8.0049433-1.02905221 17.0523909-1.54637972 27.1051105-1.54637972 31.6288344 0 54.3405344 6.8559903 68.0978674 20.55489764 13.757332 13.7082454 20.645307 36.5266844 20.645307 68.4627874 0 15.4544595-2.475948 28.8526815-7.390611 40.1797265-4.933279 11.336383-11.560627 20.043173-19.882045 26.116635-8.321418 6.080933-17.145472 10.5109-26.490778 13.293637-9.345306 2.780868-19.2677121 4.172237-29.7299869 4.172237-14.1668881 0-25.4668895-1.439926-33.9000043-4.327249z" fill="#6a6a67" transform="translate(1436.30363 68.698276)"/></g><path d="m587.201581 67.850112s-104.621986-68.07515981-196.478681-37.8301432c-30.802267 10.1309185-56.216377 30.019805-76.426892 51.9860433-11.360464 12.3470006-24.4465 40.5488979-63.772698 55.8957169-8.642195 3.367364-18.34697 6.891475-30.572907 8.410302-17.775363 2.21428-29.429693 6.513119-44.302225 10.334509-6.212417 1.594499-18.416852 5.187074-19.275158-2.655695-.589526-5.212297 4.927645-6.639238 9.659977-8.022938 10.084652-2.949371 17.282598-5.469939 27.141474-8.90937 3.424266-1.203531 12.437378-2.670109 11.349713-6.287908-.732876-2.464716-6.624548-.971113-9.432411-.416191-17.440283 3.407001-33.292967 6.430241-50.93394 9.186831-7.122688 1.126058-15.773842 2.437691-17.013817-3.850217-1.827709-9.314752 9.821246-9.521947 17.861372-10.932672 14.825943-2.585429 26.551948-5.17266 40.809868-7.995913 2.263133-.441414 5.382781-.518887 6.341432-3.04486-2.557-1.749444-6.305595-.628791-9.435994-.158549-19.18019 2.794425-39.345908 5.80145-57.961659 9.669685-6.192707 1.282805-12.535931 1.83052-13.861916-3.801572-2.255966-9.570592 10.061357-11.118246 17.974261-13.047859 16.872259-4.10786 31.024458-5.442914 49.935867-8.6048847 2.591046-.4468198 8.420003-1.0431801 8.409252-3.2088148.012543-3.0124303-9.099122-2.0665416-12.166806-2.0719467-13.777698-.0072068-23.865933 1.0702055-39.078919 2.6196613-8.299948.8359854-18.868405 3.5259127-19.875436-3.9330953-1.56072-11.5866863 21.269511-10.4119826 31.155265-11.5452473 18.827191-2.2016686 36.715442-2.8773034 53.938908-7.3076659 7.914695-2.0323095 18.48136-4.6627809 19.201692-10.2318133.732876-5.723978-7.163901-12.1019704-9.806911-13.8171819-4.253902-2.7367713-9.561425-4.6880046-13.881626-7.9977142-4.252111-3.284486-8.712078-7.1238933-10.939374-11.3794916-2.456656-4.6429623-3.300627-15.4026715 3.646458-15.7720186 2.757689-.1441354 9.06866 5.2447277 11.170525 6.6320311 3.999457 2.616058 7.635163 4.5348608 10.917871 6.8878715 6.112073 4.3835185 10.152743 9.3399754 16.252273 12.3307854 4.565687 2.2304956 9.091954 3.8826479 13.498166 6.1978231 4.275404 2.2629262 8.593814 4.4844133 12.767082 7.0356103 4.373958 2.6809189 8.400293 8.785054 14.193412 11.8569402 32.078079 16.9503256 49.007679-14.7973028 41.239917-18.8439048-40.111038-20.9410751-106.089529-48.43851023-145.107525-44.45676919-96.1571865 9.79940699-164.341471 114.69215839-164.341471 114.69215839s87.7318079 88.987408 183.883619 79.193406c49.530905-5.035731 91.582539-35.295161 120.757786-63.459223-.752586-.906251 27.225692-34.1979303 61.140439-46.1990058 16.886595-5.9852234 27.352915-12.6893223 41.084024-19.6186327 5.716069-2.8953203 16.883011-9.0282825 19.39163-1.5584642 1.666441 4.9708703-3.417098 7.547291-7.730132 9.9075085-9.229929 5.0483432-15.734422 9.0625147-24.62927 14.5522726-3.082019 1.9043893-11.579072 5.2699514-9.751364 8.5778593 1.239975 2.2539177 6.674721-.4666384 9.308771-1.6251269 16.298861-7.0662391 31.153474-13.4424298 47.807125-19.9195153 6.706974-2.6376782 14.877907-5.7690203 17.425948.0972914 3.777265 8.720193-7.552737 11.4245339-15.126977 14.5270488-13.926423 5.7203746-24.82996 10.7597093-38.152522 16.5881853-2.1162.918863-5.148047 1.657557-5.547634 4.33127 2.86341 1.165695 6.280509-.738694 9.256807-1.870158 18.130153-6.862647 37.190288-14.1252709 54.55352-21.9139888 5.769825-2.5656105 11.860396-4.4681981 14.352889.756711 4.239567 8.8463115-7.461352 13.0190318-14.786522 16.5971938-15.598239 7.639177-29.141202 11.986662-46.945235 19.139382-2.445904.994535-8.002497 2.817848-7.540194 4.93844.62178 2.952975 9.328482.066663 12.331658-.590955 13.460537-2.951173 23.079302-6.178004 37.60421-10.947085 7.932614-2.616058 17.703688-7.511257 20.255313-.448622 3.995872 10.988524-18.558411 14.755864-27.978278 17.986299-17.918712 6.185212-35.251483 10.709262-51.132838 18.726795-7.291124 3.689867-17.056822 8.527412-16.571225 14.125271.496348 5.7474 9.561425 10.285864 12.507261 11.390302 4.7395 1.762056 10.335514 2.516965 15.257784 4.846554 4.855971 2.279141 10.038063 5.06636 13.111122 8.745416 3.388428 4.008767 6.488365 14.337871-.213233 16.18821-2.655553.733289-9.975347-3.167376-12.302988-4.070024-4.486845-1.695393-8.434338-2.787219-12.152471-4.381717-6.893328-2.967388-11.896233-6.949129-18.495695-8.552636-4.924062-1.201729-9.708358-1.837726-14.505197-3.154764-4.651698-1.290012-9.333858-2.531378-13.960469-4.127678-4.841636-1.680979-11.166942-4.561886-16.386663-8.52561-1.813373-1.363881-5.287812-3.92769-9.195883-2.796227-25.860286.60717-51.308441 14.83694-65.740172 39.857047-14.07694 24.418343-14.123529 52.895899-2.678847 75.50354-2.410067-17.056626.749002-35.316782 10.204706-51.708583 8.996986-15.602659 22.281919-27.039805 37.272714-33.599769 38.795804 15.417085 93.863591 29.113554 145.06452 12.244304 91.845944-30.243214 136.153544-147.364055 136.153544-147.364055" fill="#5aa144" transform="translate(505.170517 494)"/></g></svg>