<svg width="201" height="168" viewBox="0 0 201 168" fill="none" xmlns="http://www.w3.org/2000/svg">
<g filter="url(#filter0_b_56_302)">
<rect width="144.941" height="85.0756" rx="42.5378" transform="matrix(0.500359 -0.865818 0.866233 0.499641 42.7588 125.493)" fill="url(#paint0_linear_56_302)" fill-opacity="0.5"/>
<rect x="-0.683296" y="0.183089" width="145.941" height="86.0756" rx="43.0378" transform="matrix(0.500359 -0.865818 0.866233 0.499641 42.2588 124.993)" stroke="url(#paint1_radial_56_302)"/>
<rect x="-0.683296" y="0.183089" width="145.941" height="86.0756" rx="43.0378" transform="matrix(0.500359 -0.865818 0.866233 0.499641 42.2588 124.993)" stroke="url(#paint2_radial_56_302)"/>
<rect x="-0.683296" y="0.183089" width="145.941" height="86.0756" rx="43.0378" transform="matrix(0.500359 -0.865818 0.866233 0.499641 42.2588 124.993)" stroke="url(#paint3_radial_56_302)"/>
</g>
<ellipse cx="41.2539" cy="41.9415" rx="41.2539" ry="41.9415" transform="matrix(0.933696 0.358066 -0.358664 0.933467 30.0859 2.35453)" fill="url(#paint4_diamond_56_302)"/>
<g filter="url(#filter1_b_56_302)">
<rect x="183.156" y="133.872" width="17.8442" height="17.8271" rx="8.91357" fill="url(#paint5_linear_56_302)" fill-opacity="0.5"/>
</g>
<path d="M115.008 104.713H111.024L109.296 133.369L107.52 104.713H103.536L101.808 133.369L99.9839 104.713H96.0479L99.8879 149.545H103.824L105.552 120.889L107.376 149.545H111.36L115.008 104.713ZM121.001 149.833C124.329 149.833 125.993 148.073 125.993 144.553V136.201H122.057V144.025C122.057 144.761 121.929 145.321 121.673 145.705C121.417 146.089 121.097 146.281 120.713 146.281C120.265 146.281 119.929 146.073 119.705 145.657C119.481 145.209 119.369 144.697 119.369 144.121V137.833C119.369 136.681 119.545 135.753 119.897 135.049C120.249 134.313 121.017 133.305 122.201 132.025C123.065 131.129 123.737 130.345 124.217 129.673C124.697 129.001 125.065 128.329 125.321 127.657C125.577 127.017 125.753 126.329 125.849 125.593C125.945 124.825 125.993 123.849 125.993 122.665V116.857C125.993 113.337 124.329 111.577 121.001 111.577H120.425C117.065 111.577 115.385 113.337 115.385 116.857V144.553C115.385 148.073 117.065 149.833 120.425 149.833H121.001ZM120.713 115.129C121.097 115.129 121.417 115.321 121.673 115.705C121.929 116.089 122.057 116.649 122.057 117.385V123.337C122.057 124.553 121.897 125.529 121.577 126.265C121.289 127.001 120.585 127.961 119.465 129.145L119.369 129.241V117.289C119.369 116.713 119.481 116.217 119.705 115.801C119.929 115.353 120.265 115.129 120.713 115.129ZM131.815 149.545V104.713H127.831V149.545H131.815ZM137.699 149.545V104.713H133.715V149.545H137.699ZM139.407 149.545L141.759 104.713H148.527L150.879 149.545H147.183L146.703 140.185L146.031 141.145C145.199 142.297 144.591 143.225 144.207 143.929C143.823 144.633 143.567 145.321 143.439 145.993C143.311 146.633 143.215 147.513 143.151 148.633L143.103 149.545H139.407ZM143.727 137.449C144.783 135.945 145.455 134.793 145.743 133.993C146.031 133.193 146.175 132.057 146.175 130.585L145.119 110.713L143.727 137.449ZM158.422 155.833C160.118 155.833 161.414 155.449 162.31 154.681C163.302 153.881 163.798 152.729 163.798 151.225C163.798 149.849 163.19 148.729 161.974 147.865C160.982 147.161 159.862 146.809 158.614 146.809C158.262 146.809 157.942 146.793 157.654 146.761C157.366 146.729 157.174 146.665 157.078 146.569C156.854 146.345 156.886 146.041 157.174 145.657C157.462 145.241 158.118 144.505 159.142 143.449C160.23 142.265 161.11 141.049 161.782 139.801C162.486 138.521 162.854 137.081 162.886 135.481L162.838 117.289C162.87 116.521 162.95 115.961 163.078 115.609C163.206 115.225 163.414 115.033 163.702 115.033H163.846V111.577H163.702C163.254 111.577 162.838 111.705 162.454 111.961C162.102 112.217 161.83 112.537 161.638 112.921C160.774 112.025 159.51 111.577 157.846 111.577H157.27C153.91 111.577 152.23 113.337 152.23 116.857V139.705C152.23 141.561 152.694 142.921 153.622 143.785C152.854 144.937 152.47 145.977 152.47 146.905C152.47 147.385 152.566 147.865 152.758 148.345C152.918 148.665 153.142 149.017 153.43 149.401C152.566 149.881 152.134 150.745 152.134 151.993C152.134 153.241 152.598 154.201 153.526 154.873C154.358 155.513 155.398 155.833 156.646 155.833H158.422ZM158.806 150.409C159.254 150.409 159.638 150.521 159.958 150.745C160.31 150.969 160.486 151.241 160.486 151.561C160.486 151.881 160.31 152.153 159.958 152.377C159.638 152.601 159.254 152.713 158.806 152.713H156.742C156.262 152.713 155.862 152.601 155.542 152.377C155.222 152.153 155.062 151.881 155.062 151.561C155.062 151.241 155.222 150.969 155.542 150.745C155.862 150.521 156.262 150.409 156.742 150.409H158.806ZM157.558 115.129C157.942 115.129 158.262 115.321 158.518 115.705C158.774 116.089 158.902 116.649 158.902 117.385V135.049C158.902 136.169 158.726 137.113 158.374 137.881C158.054 138.649 157.398 139.561 156.406 140.617C156.278 140.329 156.214 139.897 156.214 139.321V117.289C156.214 116.713 156.326 116.217 156.55 115.801C156.806 115.353 157.142 115.129 157.558 115.129ZM170.248 149.833C173.576 149.833 175.24 148.073 175.24 144.553V136.201H171.304V144.025C171.304 144.761 171.176 145.321 170.92 145.705C170.664 146.089 170.344 146.281 169.96 146.281C169.512 146.281 169.176 146.073 168.952 145.657C168.728 145.209 168.616 144.697 168.616 144.121V137.833C168.616 136.681 168.792 135.753 169.144 135.049C169.496 134.313 170.264 133.305 171.448 132.025C172.312 131.129 172.984 130.345 173.464 129.673C173.944 129.001 174.312 128.329 174.568 127.657C174.824 127.017 175 126.329 175.096 125.593C175.192 124.825 175.24 123.849 175.24 122.665V116.857C175.24 113.337 173.576 111.577 170.248 111.577H169.672C166.312 111.577 164.632 113.337 164.632 116.857V144.553C164.632 148.073 166.312 149.833 169.672 149.833H170.248ZM169.96 115.129C170.344 115.129 170.664 115.321 170.92 115.705C171.176 116.089 171.304 116.649 171.304 117.385V123.337C171.304 124.553 171.144 125.529 170.824 126.265C170.536 127.001 169.832 127.961 168.712 129.145L168.616 129.241V117.289C168.616 116.713 168.728 116.217 168.952 115.801C169.176 115.353 169.512 115.129 169.96 115.129Z" fill="white"/>
<defs>
<filter id="filter0_b_56_302" x="15.3301" y="-27.4458" width="201.076" height="222.892" filterUnits="userSpaceOnUse" color-interpolation-filters="sRGB">
<feFlood flood-opacity="0" result="BackgroundImageFix"/>
<feGaussianBlur in="BackgroundImageFix" stdDeviation="21"/>
<feComposite in2="SourceAlpha" operator="in" result="effect1_backgroundBlur_56_302"/>
<feBlend mode="normal" in="SourceGraphic" in2="effect1_backgroundBlur_56_302" result="shape"/>
</filter>
<filter id="filter1_b_56_302" x="141.156" y="91.8717" width="101.844" height="101.827" filterUnits="userSpaceOnUse" color-interpolation-filters="sRGB">
<feFlood flood-opacity="0" result="BackgroundImageFix"/>
<feGaussianBlur in="BackgroundImageFix" stdDeviation="21"/>
<feComposite in2="SourceAlpha" operator="in" result="effect1_backgroundBlur_56_302"/>
<feBlend mode="normal" in="SourceGraphic" in2="effect1_backgroundBlur_56_302" result="shape"/>
</filter>
<linearGradient id="paint0_linear_56_302" x1="0" y1="0" x2="35.3099" y2="117.907" gradientUnits="userSpaceOnUse">
<stop stop-color="white" stop-opacity="0.4"/>
<stop offset="1" stop-color="white" stop-opacity="0"/>
</linearGradient>
<radialGradient id="paint1_radial_56_302" cx="0" cy="0" r="1" gradientUnits="userSpaceOnUse" gradientTransform="translate(72.4707 42.5378) rotate(-147.432) scale(109.727 77.5083)">
<stop stop-color="white"/>
<stop offset="1" stop-color="white" stop-opacity="0"/>
</radialGradient>
<radialGradient id="paint2_radial_56_302" cx="0" cy="0" r="1" gradientUnits="userSpaceOnUse" gradientTransform="translate(72.4707 42.5378) rotate(26.7714) scale(97.4057 56.921)">
<stop stop-color="#E7CE4A"/>
<stop offset="1" stop-color="#E3CD4B" stop-opacity="0"/>
</radialGradient>
<radialGradient id="paint3_radial_56_302" cx="0" cy="0" r="1" gradientUnits="userSpaceOnUse" gradientTransform="translate(72.4707 42.5378) rotate(150.417) scale(91.334 58.6099)">
<stop stop-color="#151515"/>
<stop offset="1" stop-color="#151515" stop-opacity="0"/>
</radialGradient>
<radialGradient id="paint4_diamond_56_302" cx="0" cy="0" r="1" gradientUnits="userSpaceOnUse" gradientTransform="translate(96.1394 7.88643) rotate(139.622) scale(84.2925 358.768)">
<stop stop-color="#0F1847"/>
<stop offset="1" stop-color="#E09132"/>
</radialGradient>
<linearGradient id="paint5_linear_56_302" x1="183.156" y1="133.872" x2="194.049" y2="155.242" gradientUnits="userSpaceOnUse">
<stop stop-color="white" stop-opacity="0.4"/>
<stop offset="1" stop-color="white" stop-opacity="0"/>
</linearGradient>
</defs>
</svg>
